<?xml version="1.0" encoding="utf-8"?>
<!-- Generator: Adobe Illustrator 17.0.0, SVG Export Plug-In . SVG Version: 6.00 Build 0)  -->
<!DOCTYPE svg PUBLIC "-//W3C//DTD SVG 1.1//EN" "http://www.w3.org/Graphics/SVG/1.1/DTD/svg11.dtd">
<svg version="1.1" id="Layer_1" xmlns="http://www.w3.org/2000/svg" xmlns:xlink="http://www.w3.org/1999/xlink" x="0px" y="0px"
	 width="500px" height="500px" viewBox="0 0 500 500" enable-background="new 0 0 500 500" xml:space="preserve">
<g>
	<path fill="#010100" d="M400.507,313.032c0.068,14.098-4.979,26.253-13.939,36.979c-5.737,6.868-12.617,12.348-20.158,17.045
		c-1.131,0.705-1.835,1.471-2.266,2.718c-7.905,22.902-18.869,44.194-33.686,63.416c-12.373,16.051-26.99,29.567-45.644,37.966
		c-18.277,8.229-37.27,11.544-57.073,5.997c-11.892-3.331-22.177-9.603-31.522-17.533c-16.649-14.128-28.917-31.702-39.574-50.516
		c-6.895-12.173-12.795-24.832-17.745-37.918c-0.565-1.494-1.582-2.305-2.738-3.12c-9.258-6.522-17.45-14.142-24.444-23.088
		c-12.205-15.608-14.89-32.917-9.799-51.788c2.791-10.346,7.509-19.596,14.887-27.418c0.656-0.695,0.985-1.369,1.021-2.339
		c0.626-16.975,1.994-33.891,4.231-50.73c5.111-38.474,13.117-76.221,28.958-111.904c9.158-20.628,20.857-39.597,37.65-55.027
		c14.93-13.718,32.343-22.416,52.514-25.01c21.201-2.726,40.467,3.216,58.238,14.396c17.972,11.307,30.852,27.397,41.278,45.586
		c13.634,23.787,21.975,49.556,28.108,76.121c7.986,34.59,11.86,69.681,12.659,105.138c0.027,1.194,0.211,2.149,1.128,3.101
		c10.371,10.775,15.386,23.986,17.323,38.561C400.324,306.768,400.593,309.886,400.507,313.032z M250.898,27.942
		c-18.758,0.582-35.306,6.754-49.948,17.995c-15.517,11.912-26.81,27.316-35.923,44.426c-13.178,24.743-21.471,51.218-27.407,78.485
		c-6.933,31.847-10.717,64.094-11.793,96.663c-0.062,1.881-0.689,3.417-2.098,4.732c-4.564,4.263-8.06,9.341-10.517,15.042
		c-8.175,18.972-8.683,37.346,4.625,54.536c7.011,9.056,15.397,16.62,24.833,23.051c1.456,0.993,2.435,2.212,3.064,3.897
		c3.555,9.514,7.658,18.791,12.275,27.839c11.231,22.006,24.468,42.511,43.359,58.904c20.372,17.678,43.408,22.586,69.12,14.647
		c20.199-6.236,36.065-18.808,49.463-34.742c16.794-19.973,28.542-42.766,37.036-67.318c0.799-2.31,1.92-4.04,4.137-5.251
		c2.574-1.406,5.045-3.058,7.372-4.847c15.407-11.841,25.391-26.443,23.895-46.944c-1.115-15.277-5.796-28.975-17.067-39.86
		c-1.417-1.369-1.847-2.947-1.876-4.81c-0.439-28.19-3.029-56.182-7.893-83.953c-4.673-26.685-11.52-52.762-22.613-77.566
		c-9.12-20.394-20.674-39.138-37.999-53.745C289.274,35.911,271.23,28.686,250.898,27.942z"/>
	<path fill="#0B97F7" d="M250.898,27.942c20.332,0.743,38.376,7.969,54.049,21.182c17.325,14.606,28.879,33.351,37.999,53.745
		c11.093,24.805,17.94,50.881,22.613,77.566c4.863,27.771,7.454,55.763,7.893,83.953c0.029,1.863,0.458,3.441,1.876,4.81
		c11.271,10.885,15.953,24.582,17.067,39.86c1.496,20.502-8.488,35.103-23.895,46.944c-2.328,1.789-4.799,3.442-7.372,4.847
		c-2.217,1.211-3.338,2.942-4.137,5.251c-8.494,24.552-20.242,47.345-37.036,67.318c-13.398,15.934-29.265,28.506-49.463,34.742
		c-25.712,7.939-48.748,3.031-69.12-14.647c-18.891-16.393-32.128-36.898-43.359-58.904c-4.618-9.048-8.721-18.325-12.275-27.839
		c-0.629-1.685-1.608-2.905-3.064-3.897c-9.437-6.431-17.822-13.995-24.833-23.051c-13.308-17.19-12.799-35.564-4.625-54.536
		c2.457-5.701,5.952-10.779,10.517-15.042c1.409-1.316,2.036-2.851,2.098-4.732c1.075-32.569,4.86-64.817,11.793-96.663
		c5.936-27.266,14.229-53.741,27.407-78.485c9.112-17.11,20.405-32.514,35.923-44.426C215.592,34.697,232.14,28.525,250.898,27.942z
		 M304.963,246.364c-2.948,0.048-5.882,0.197-8.803,0.673c-14.433,2.351-24.552,11.609-27.416,25.346
		c-1.807,8.667-0.403,17.086,2.744,25.208c6.779,17.495,19.336,29.977,35.08,39.495c11.644,7.04,24.08,11.708,37.997,10.795
		c10.258-0.673,18.675-4.987,24.865-13.334c8.031-10.828,9.111-22.822,5.54-35.402C366.696,269.998,336.291,247.153,304.963,246.364
		z M194.856,246.363c-17.039,0.581-32.675,7.255-46.218,18.93c-11.203,9.657-19.484,21.335-23.077,35.894
		c-2.774,11.24-1.698,22.037,4.97,31.8c9.573,14.017,23.384,17.066,38.972,14.014c18.037-3.531,32.828-13.127,45.355-26.277
		c8.845-9.285,15.144-20.087,17.408-32.877c2.274-12.846-0.075-24.44-10.435-33.299C214.399,248.192,205.38,246.353,194.856,246.363
		z M297.887,406.785c-0.374-3.828-0.748-6.993-0.962-10.169c-0.092-1.371-0.48-1.858-1.937-1.682
		c-3.19,0.384-6.399,0.642-9.608,0.84c-1.504,0.093-1.964,0.644-1.75,2.16c0.413,2.916,0.596,5.864,0.963,8.788
		c0.211,1.68-0.243,1.962-1.864,1.446c-3.225-1.028-6.538-1.775-9.789-2.728c-1.448-0.424-2.061-0.11-2.344,1.461
		c-0.601,3.333-1.269,6.67-2.203,9.921c-0.555,1.932-0.099,2.583,1.797,3.029c3.899,0.917,7.736,2.098,11.867,3.245
		c-18.589,13.534-50.241,11.161-63.163-0.489c5.356-1.51,10.535-3.025,15.75-4.402c1.419-0.375,1.91-0.945,1.613-2.403
		c-0.658-3.235-1.284-6.48-1.763-9.745c-0.256-1.744-0.827-2.156-2.575-1.594c-3.585,1.154-7.251,2.054-11.123,3.124
		c0.466-3.697,0.829-6.968,1.314-10.221c0.167-1.118,0.009-1.625-1.239-1.735c-3.469-0.305-6.933-0.681-10.387-1.122
		c-1.438-0.184-2.004,0.144-2.165,1.731c-0.463,4.578-1.152,9.134-1.755,13.717c-0.35-0.068-0.57-0.044-0.661-0.141
		c-0.242-0.258-0.442-0.559-0.633-0.859c-8.212-12.864-12.34-27.007-13.089-42.177c-0.156-3.168-1.074-4.56-3.946-5.094
		c-4.15-0.772-7.379,2.156-6.998,6.506c0.272,3.11,0.679,6.217,1.211,9.293c2.177,12.599,6.232,24.524,13.046,35.414
		c0.83,1.326,0.6,1.765-0.878,2.111c-2.601,0.609-5.139,1.488-7.74,2.1c-1.446,0.34-1.838,0.986-1.551,2.422
		c0.648,3.237,1.233,6.49,1.698,9.758c0.264,1.86,1.056,2.007,2.688,1.514c4.749-1.436,9.548-2.704,14.69-4.139
		c-0.205,1.81-0.36,3.294-0.544,4.774c-0.441,3.544-0.864,7.091-1.36,10.628c-0.181,1.288,0.04,1.889,1.548,1.997
		c3.471,0.248,6.936,0.649,10.381,1.145c1.226,0.177,1.601-0.2,1.725-1.295c0.261-2.306,0.674-4.599,0.839-6.911
		c0.137-1.933,0.456-2.387,2.479-1.367c16.491,8.319,33.759,9.596,51.568,5.301c5.655-1.364,10.877-3.81,16.152-6.875
		c0.302,3.023,0.674,5.738,0.812,8.464c0.101,1.995,0.762,2.783,2.882,2.434c2.726-0.45,5.496-0.74,8.256-0.842
		c1.887-0.069,2.369-0.691,2.142-2.549c-0.54-4.411-0.861-8.85-1.303-13.627c4.478,1.221,8.599,2.317,12.702,3.479
		c1.26,0.357,1.897,0.249,2.184-1.272c0.677-3.591,1.528-7.153,2.405-10.702c0.374-1.514-0.209-2.053-1.603-2.362
		c-2.261-0.501-4.466-1.254-6.728-1.748c-1.87-0.408-2.558-0.857-1.256-2.852c1.747-2.676,3.21-5.564,4.545-8.475
		c5.331-11.627,8.435-23.848,9.451-36.597c0.158-1.986-0.293-3.79-2.112-4.885c-1.771-1.066-3.645-0.828-5.372,0.118
		c-1.92,1.052-2.481,2.96-2.683,4.978c-0.562,5.615-1.774,11.101-3.37,16.497C305.839,391.911,302.748,399.358,297.887,406.785z"/>
	<path fill="#010100" d="M304.963,246.364c31.328,0.789,61.734,23.634,70.007,52.78c3.571,12.58,2.491,24.574-5.54,35.402
		c-6.19,8.346-14.607,12.66-24.865,13.334c-13.917,0.914-26.353-3.755-37.997-10.795c-15.744-9.519-28.301-22-35.08-39.495
		c-3.147-8.123-4.551-16.541-2.744-25.208c2.864-13.737,12.983-22.995,27.416-25.346
		C299.081,246.561,302.015,246.412,304.963,246.364z M326.505,292.252c-0.039-6.037-4.914-10.885-10.926-10.868
		c-5.953,0.017-10.928,4.975-10.954,10.915c-0.026,6.053,5.084,11.106,11.131,11.007
		C321.783,303.208,326.545,298.311,326.505,292.252z"/>
	<path fill="#010100" d="M194.856,246.363c10.524-0.011,19.542,1.828,26.975,8.184c10.36,8.859,12.708,20.454,10.435,33.299
		c-2.264,12.79-8.562,23.592-17.408,32.877c-12.527,13.15-27.318,22.746-45.355,26.277c-15.587,3.052-29.399,0.002-38.972-14.014
		c-6.668-9.764-7.744-20.56-4.97-31.8c3.593-14.558,11.874-26.237,23.077-35.894C162.182,253.618,177.817,246.945,194.856,246.363z
		 M174.549,292.23c-0.039,6.069,4.702,10.965,10.728,11.076c6.02,0.111,11.18-4.96,11.176-10.986
		c-0.003-5.894-5.026-10.909-10.955-10.936C179.486,281.356,174.588,286.208,174.549,292.23z"/>
	<path fill="#010100" d="M297.887,406.785c4.862-7.427,7.952-14.874,10.256-22.663c1.595-5.395,2.807-10.882,3.37-16.497
		c0.202-2.018,0.763-3.926,2.683-4.978c1.727-0.946,3.601-1.184,5.372-0.118c1.819,1.095,2.27,2.899,2.112,4.885
		c-1.016,12.749-4.121,24.97-9.451,36.597c-1.335,2.912-2.798,5.8-4.545,8.475c-1.302,1.994-0.614,2.444,1.256,2.852
		c2.262,0.493,4.467,1.247,6.728,1.748c1.394,0.309,1.977,0.848,1.603,2.362c-0.877,3.55-1.728,7.111-2.405,10.702
		c-0.287,1.521-0.924,1.629-2.184,1.272c-4.103-1.163-8.224-2.259-12.702-3.479c0.442,4.778,0.762,9.216,1.303,13.627
		c0.228,1.858-0.255,2.479-2.142,2.549c-2.76,0.102-5.53,0.392-8.256,0.842c-2.119,0.35-2.781-0.438-2.882-2.434
		c-0.138-2.726-0.51-5.441-0.812-8.464c-5.276,3.065-10.498,5.511-16.152,6.875c-17.809,4.295-35.077,3.018-51.568-5.301
		c-2.023-1.02-2.341-0.567-2.479,1.367c-0.164,2.312-0.577,4.605-0.839,6.911c-0.124,1.095-0.5,1.472-1.725,1.295
		c-3.445-0.497-6.91-0.897-10.381-1.145c-1.508-0.108-1.729-0.709-1.548-1.997c0.496-3.537,0.919-7.084,1.36-10.628
		c0.184-1.48,0.339-2.964,0.544-4.774c-5.142,1.435-9.942,2.703-14.69,4.139c-1.631,0.493-2.423,0.345-2.688-1.514
		c-0.464-3.267-1.05-6.521-1.698-9.758c-0.288-1.436,0.105-2.082,1.551-2.422c2.601-0.612,5.139-1.49,7.74-2.1
		c1.478-0.346,1.708-0.785,0.878-2.111c-6.814-10.89-10.87-22.816-13.046-35.414c-0.531-3.076-0.938-6.183-1.211-9.293
		c-0.381-4.35,2.848-7.277,6.998-6.506c2.872,0.534,3.79,1.926,3.946,5.094c0.749,15.17,4.877,29.313,13.089,42.177
		c0.191,0.3,0.392,0.601,0.633,0.859c0.091,0.097,0.311,0.073,0.661,0.141c0.603-4.584,1.292-9.139,1.755-13.717
		c0.16-1.587,0.726-1.915,2.165-1.731c3.454,0.441,6.918,0.817,10.387,1.122c1.248,0.11,1.406,0.616,1.239,1.735
		c-0.485,3.253-0.848,6.524-1.314,10.221c3.872-1.07,7.538-1.971,11.123-3.124c1.749-0.563,2.32-0.15,2.575,1.594
		c0.479,3.265,1.105,6.51,1.763,9.745c0.296,1.458-0.194,2.028-1.613,2.403c-5.216,1.377-10.395,2.893-15.75,4.402
		c12.923,11.649,44.574,14.023,63.163,0.489c-4.131-1.147-7.968-2.328-11.867-3.245c-1.897-0.446-2.353-1.097-1.797-3.029
		c0.934-3.251,1.602-6.588,2.203-9.921c0.283-1.57,0.896-1.885,2.344-1.461c3.25,0.953,6.564,1.699,9.789,2.728
		c1.621,0.517,2.075,0.234,1.864-1.446c-0.367-2.924-0.55-5.872-0.963-8.788c-0.215-1.516,0.246-2.067,1.75-2.16
		c3.208-0.199,6.417-0.456,9.608-0.84c1.457-0.175,1.845,0.311,1.937,1.682C297.139,399.792,297.513,402.957,297.887,406.785z"/>
	<path fill="#0B97F7" d="M326.505,292.252c0.04,6.059-4.722,10.955-10.748,11.054c-6.047,0.099-11.157-4.955-11.131-11.007
		c0.025-5.94,5.001-10.898,10.954-10.915C321.591,281.367,326.466,286.216,326.505,292.252z"/>
	<path fill="#0B97F7" d="M174.549,292.23c0.039-6.022,4.937-10.874,10.949-10.846c5.929,0.028,10.952,5.042,10.955,10.936
		c0.003,6.025-5.156,11.097-11.176,10.986C179.251,303.195,174.51,298.299,174.549,292.23z"/>
	<g>
		<path d="M184.5,137.197v43.667h29.111L250,217.253V100.809l-36.389,36.389H184.5z M282.75,159.031
			c0-12.882-7.423-23.944-18.194-29.329v58.586C275.327,182.975,282.75,171.912,282.75,159.031z M264.556,95.205v14.992
			c21.033,6.259,36.389,25.763,36.389,48.834s-15.356,42.575-36.389,48.834v14.992c29.184-6.623,50.944-32.677,50.944-63.826
			S293.739,101.827,264.556,95.205z"/>
		<path fill="none" d="M162.667,71.697h174.667v174.667H162.667V71.697z"/>
	</g>
</g>
</svg>
